# xmcd
#
# Track frame offsets:
#	150
#	21964
#	33714
#	49321
#	66721
#	84286
#	99020
#	110153
#	123114
#	140589
#	161218
#
# Disc length: 2371 seconds
#
# Revision: 1
# Processed by: cddbd v1.4PL0 Copyright (c) Steve Scherf et al.
# Submitted via: EasyCDDAExtractor 5.0.6
#
DISCID=9b09410b
DTITLE=Luis Miguel - Mis Romances
DYEAR=2002
DGENRE=Ballad
TTITLE0=¿Que Sabes Tu?
TTITLE1=Tú Me Acostumbraste
TTITLE2=Perfidia
TTITLE3=Amor, Amor, Amor
TTITLE4=Cómo Duele
TTITLE5=Toda Una Vida
TTITLE6=El Tiempo Que Te Quede Libre
TTITLE7=Amorcito Corazón
TTITLE8=La Última Noche
TTITLE9=Volver
TTITLE10=Al Que Me Siga
EXTD=
EXTT0=
EXTT1=
EXTT2=
EXTT3=
EXTT4=
EXTT5=
EXTT6=
EXTT7=
EXTT8=
EXTT9=
EXTT10=
PLAYORDER=
